<mxfile host="app.diagrams.net" modified="2023-08-09T14:12:09.720Z" agent="Mozilla/5.0 (Macintosh; Intel Mac OS X 10_15_7) AppleWebKit/605.1.15 (KHTML, like Gecko) Version/16.5 Safari/605.1.15" etag="KLWcTg44HCDRK4ZSm4_o" version="21.6.6" type="device">
  <diagram name="Page-1" id="Y6AV14zsCCOd0F7M17an">
    <mxGraphModel dx="984" dy="1836" grid="1" gridSize="10" guides="1" tooltips="1" connect="1" arrows="1" fold="1" page="1" pageScale="1" pageWidth="827" pageHeight="1169" math="0" shadow="0">
      <root>
        <mxCell id="0" />
        <mxCell id="1" parent="0" />
        <mxCell id="8hj7jt3sQ_TZUFZ1UJLI-1" value="Registration Event queue" style="shape=internalStorage;whiteSpace=wrap;html=1;backgroundOutline=1;" vertex="1" parent="1">
          <mxGeometry x="140" y="150" width="190" height="80" as="geometry" />
        </mxCell>
        <mxCell id="8hj7jt3sQ_TZUFZ1UJLI-2" value="ThreadPool" style="swimlane;startSize=0;" vertex="1" parent="1">
          <mxGeometry x="430" y="100" width="200" height="200" as="geometry" />
        </mxCell>
        <mxCell id="8hj7jt3sQ_TZUFZ1UJLI-4" value="" style="endArrow=classic;startArrow=classic;html=1;rounded=0;entryX=-0.01;entryY=0.405;entryDx=0;entryDy=0;entryPerimeter=0;" edge="1" parent="1" target="8hj7jt3sQ_TZUFZ1UJLI-2">
          <mxGeometry width="50" height="50" relative="1" as="geometry">
            <mxPoint x="330" y="180" as="sourcePoint" />
            <mxPoint x="380" y="130" as="targetPoint" />
          </mxGeometry>
        </mxCell>
        <mxCell id="8hj7jt3sQ_TZUFZ1UJLI-5" value="" style="endArrow=classic;startArrow=classic;html=1;rounded=0;entryX=0.01;entryY=0.585;entryDx=0;entryDy=0;entryPerimeter=0;" edge="1" parent="1" target="8hj7jt3sQ_TZUFZ1UJLI-2">
          <mxGeometry width="50" height="50" relative="1" as="geometry">
            <mxPoint x="330" y="215" as="sourcePoint" />
            <mxPoint x="380" y="165" as="targetPoint" />
          </mxGeometry>
        </mxCell>
        <mxCell id="8hj7jt3sQ_TZUFZ1UJLI-6" value="" style="endArrow=classic;startArrow=classic;html=1;rounded=0;entryX=0;entryY=0.5;entryDx=0;entryDy=0;" edge="1" parent="1" target="8hj7jt3sQ_TZUFZ1UJLI-2">
          <mxGeometry width="50" height="50" relative="1" as="geometry">
            <mxPoint x="330" y="200" as="sourcePoint" />
            <mxPoint x="380" y="150" as="targetPoint" />
          </mxGeometry>
        </mxCell>
        <mxCell id="8hj7jt3sQ_TZUFZ1UJLI-7" value="" style="endArrow=classic;html=1;rounded=0;" edge="1" parent="1">
          <mxGeometry width="50" height="50" relative="1" as="geometry">
            <mxPoint x="630" y="190" as="sourcePoint" />
            <mxPoint x="760" y="190" as="targetPoint" />
          </mxGeometry>
        </mxCell>
        <mxCell id="8hj7jt3sQ_TZUFZ1UJLI-8" value="PSP" style="rounded=1;whiteSpace=wrap;html=1;" vertex="1" parent="1">
          <mxGeometry x="760" y="160" width="120" height="60" as="geometry" />
        </mxCell>
        <mxCell id="8hj7jt3sQ_TZUFZ1UJLI-9" value="" style="endArrow=classic;startArrow=classic;html=1;rounded=0;entryX=0.442;entryY=1.05;entryDx=0;entryDy=0;entryPerimeter=0;" edge="1" parent="1" target="8hj7jt3sQ_TZUFZ1UJLI-8">
          <mxGeometry width="50" height="50" relative="1" as="geometry">
            <mxPoint x="570" y="480" as="sourcePoint" />
            <mxPoint x="820" y="250" as="targetPoint" />
            <Array as="points">
              <mxPoint x="810" y="480" />
            </Array>
          </mxGeometry>
        </mxCell>
        <mxCell id="8hj7jt3sQ_TZUFZ1UJLI-10" value="webhookAPI" style="rounded=1;whiteSpace=wrap;html=1;" vertex="1" parent="1">
          <mxGeometry x="450" y="450" width="120" height="60" as="geometry" />
        </mxCell>
        <mxCell id="8hj7jt3sQ_TZUFZ1UJLI-11" value="web hook" style="text;strokeColor=none;align=center;fillColor=none;html=1;verticalAlign=middle;whiteSpace=wrap;rounded=0;" vertex="1" parent="1">
          <mxGeometry x="790" y="450" width="60" height="30" as="geometry" />
        </mxCell>
        <mxCell id="8hj7jt3sQ_TZUFZ1UJLI-12" value="" style="endArrow=classic;html=1;rounded=0;exitX=0;exitY=0.5;exitDx=0;exitDy=0;" edge="1" parent="1" source="8hj7jt3sQ_TZUFZ1UJLI-10">
          <mxGeometry width="50" height="50" relative="1" as="geometry">
            <mxPoint x="180" y="280" as="sourcePoint" />
            <mxPoint x="230" y="230" as="targetPoint" />
            <Array as="points">
              <mxPoint x="230" y="480" />
            </Array>
          </mxGeometry>
        </mxCell>
        <mxCell id="8hj7jt3sQ_TZUFZ1UJLI-14" value="DeadLetter Queue" style="shape=internalStorage;whiteSpace=wrap;html=1;backgroundOutline=1;" vertex="1" parent="1">
          <mxGeometry x="435" y="-40" width="150" height="80" as="geometry" />
        </mxCell>
        <mxCell id="8hj7jt3sQ_TZUFZ1UJLI-16" value="" style="shape=flexArrow;endArrow=classic;startArrow=classic;html=1;rounded=0;entryX=0.46;entryY=1.038;entryDx=0;entryDy=0;entryPerimeter=0;" edge="1" parent="1" target="8hj7jt3sQ_TZUFZ1UJLI-14">
          <mxGeometry width="100" height="100" relative="1" as="geometry">
            <mxPoint x="505" y="100" as="sourcePoint" />
            <mxPoint x="545" y="60" as="targetPoint" />
          </mxGeometry>
        </mxCell>
      </root>
    </mxGraphModel>
  </diagram>
</mxfile>
